<svg xmlns="http://www.w3.org/2000/svg" xmlns:xlink="http://www.w3.org/1999/xlink" width="1814" height="997.025" viewBox="0 0 1814 997.025"><defs><pattern id="a" preserveAspectRatio="xMidYMid slice" width="100%" height="100%" viewBox="0 0 840 1280"><image width="840" height="1280" xlink:href="../../Downloads/WhatsApp%20Image%202021-05-30%20at%2017.50.03.jpeg"/></pattern><pattern id="b" width="1" height="1" viewBox="42.18 113.763 241.64 242.381"><image preserveAspectRatio="xMidYMid slice" width="326" height="434.249" xlink:href="../../Downloads/icha.jpg"/></pattern><pattern id="c" width="1" height="1" viewBox="56.727 35.227 202.635 203.257"><image preserveAspectRatio="xMidYMid slice" width="326" height="434.667" xlink:href="../../Downloads/WhatsApp%20Image%202021-05-30%20at%2017.58.22.jpeg"/></pattern></defs><g transform="translate(94 -1134)"><g transform="translate(26 1164)"><g transform="translate(217.692 175)"><g transform="translate(0.308)" fill="#f8f8f8" stroke="#000" stroke-width="5"><rect width="466" height="730" rx="116" stroke="none"/><rect x="2.5" y="2.5" width="461" height="725" rx="113.5" fill="none"/></g><ellipse cx="163" cy="163.5" rx="163" ry="163.5" transform="translate(70.308 68)" fill="url(#a)"/></g><text transform="translate(306 665)" font-size="78" font-family="TwCenMT-Regular, Tw Cen MT"><tspan x="0" y="0">Renata A</tspan></text><text transform="translate(264 750)" font-size="45" font-family="TwCenMT-Regular, Tw Cen MT"><tspan x="0" y="0">205150300111020</tspan></text></g><g transform="translate(531 1164)"><g transform="translate(217.692 175)"><g transform="translate(0.308)" fill="#f8f8f8" stroke="#000" stroke-width="5"><rect width="466" height="730" rx="116" stroke="none"/><rect x="2.5" y="2.5" width="461" height="725" rx="113.5" fill="none"/></g><ellipse cx="163" cy="163.5" rx="163" ry="163.5" transform="translate(70.308 68)" fill="url(#b)"/></g><text transform="translate(319 665)" font-size="78" font-family="TwCenMT-Regular, Tw Cen MT"><tspan x="0" y="0">Alisya N</tspan></text><text transform="translate(264 750)" font-size="45" font-family="TwCenMT-Regular, Tw Cen MT"><tspan x="0" y="0">205150301111016</tspan></text></g><g transform="translate(1036 1164)"><g transform="translate(217.692 175)"><g transform="translate(0.308)" fill="#f8f8f8" stroke="#000" stroke-width="5"><rect width="466" height="730" rx="116" stroke="none"/><rect x="2.5" y="2.5" width="461" height="725" rx="113.5" fill="none"/></g><ellipse cx="163" cy="163.5" rx="163" ry="163.5" transform="translate(70.308 68)" fill="url(#c)"/></g><text transform="translate(288 665)" font-size="78" font-family="TwCenMT-Regular, Tw Cen MT"><tspan x="0" y="0">Thariq A P</tspan></text><text transform="translate(264 750)" font-size="45" font-family="TwCenMT-Regular, Tw Cen MT"><tspan x="0" y="0">205150307111017</tspan></text></g><g transform="translate(1110 1134) rotate(90)" fill="#fff" stroke="#707070" stroke-width="1"><rect width="182" height="1204" rx="91" stroke="none"/><rect x="0.5" y="0.5" width="181" height="1203" rx="90.5" fill="none"/></g><text transform="translate(195 1253)" fill="#707070" font-size="90" font-family="TwCenMT-Regular, Tw Cen MT"><tspan x="0" y="0">About Us</tspan></text><path d="M38.334,38.334A16.167,16.167,0,1,0,22.167,22.167,16.163,16.163,0,0,0,38.334,38.334Zm0,8.084C27.543,46.418,6,51.834,6,62.585v8.084H70.669V62.585C70.669,51.834,49.126,46.418,38.334,46.418Z" transform="translate(943.666 1186.666)" fill="#707070"/><g transform="translate(25.044 1652.852)"><path d="M684.6,669.476H114.04a.864.864,0,0,1,0-1.718H684.6a.864.864,0,0,1,0,1.718Z" transform="translate(-113.269 -254.656)" fill="#cacaca"/><path d="M88.831,494.381,85.3,511.829l65.619,21.916,5.209-25.752Z" transform="translate(-12.03 -95.786)" fill="#ffb6b6"/><path d="M204.779,646.278l-6.95,34.361h0A22.342,22.342,0,0,1,171.5,698.108l-.712-.144,11.379-56.259Z" transform="translate(-121.381 -250.982)" fill="#2f2e41"/><circle cx="44.556" cy="44.556" r="44.556" transform="translate(106.605 69.146)" fill="#feb8b8"/><path d="M322.575,270.491A51.459,51.459,0,0,0,293.3,248.113l-5.47,3.992v-5.183a47.364,47.364,0,0,0-8.847-.515l-4.719,4.27v-3.915A50.967,50.967,0,0,0,239.1,267.674c-10.248,14.774-11.978,35.329-1.9,50.221,2.767-8.5,6.125-16.483,8.893-24.986a25.171,25.171,0,0,0,6.557.032l3.366-7.855.941,7.523c10.435-.909,25.912-2.905,35.8-4.734L291.8,282.1l5.755,4.8c3.03-.7,4.83-1.331,4.681-1.814,7.357,11.861,16.361,19.436,23.717,31.3C328.752,299.658,331.968,285.752,322.575,270.491Z" transform="translate(-129.798 -195.228)" fill="#2f2e41"/><ellipse cx="114.724" cy="32.09" rx="114.724" ry="32.09" transform="translate(50.934 341.084)" fill="#2f2e41"/><path d="M370.151,442.291c-1.532-9.218-3.112-18.612-7.4-26.916-2.816-5.439-7.285-10.622-13.31-11.7a12.874,12.874,0,0,1-3.466-.8c-1.765-.85-25.488-14.393-29.259-16.752-3.237-2.025-8.348-5.774-10.925-5.774-2.592-.057-12.533,2.257-51.332-.776a140.138,140.138,0,0,0-18.906,9.3c-.125-.082-40.27,21.475-41.778,21.419-2.856-.12-5.511,1.708-7.149,4.011s-2.4,5.154-3.209,7.91c8.768,19.527,16.791,39.079,25.56,58.606a5,5,0,0,1,.634,2.405,5.87,5.87,0,0,1-1.091,2.405c-4.3,6.908-4.164,15.6-3.694,23.715s1.051,16.695-2.577,23.972c-.987,2-2.27,3.827-3.209,5.825-2.2,4.525-2.993,19-1.709,23.859L358.192,567.6C354.733,558.1,370.151,442.291,370.151,442.291Z" transform="translate(-123.163 -214.013)" fill="#6c63ff"/><path d="M167.189,496.652a28.4,28.4,0,0,0-.1,7l2.305,33.11c.216,3.121.429,6.234.722,9.346.553,6.041,1.38,12.034,2.405,18.019a3.209,3.209,0,0,0,3.289,3.121c10.149,2.147,20.634,2.062,30.992,1.477,15.805-.882,56.24-2.551,58.711-5.76s1.031-8.4-2.19-10.995-56.581-8.921-56.581-8.921c.521-4.132,2.094-8.023,3.586-11.946,2.68-6.958,5.183-14.144,5.231-21.6s-2.76-15.29-8.865-19.56c-5.022-3.505-11.489-4.156-17.609-4.011-4.453.128-12.147-.939-16.214.8C169.656,488.158,167.79,493.5,167.189,496.652Z" transform="translate(-120.836 -228.984)" fill="#fbbebe"/><path d="M377.4,585.47c2.671-1.019,5.616-.65,8.48-.265,9.219,1.259,18.573,2.551,27.117,6.234a26.653,26.653,0,0,1,10.542,7.387c2.405,3.041,3.81,6.764,5.143,10.43l3.081,8.44a40.624,40.624,0,0,1,2.688,9.892c.963,10.1-5.945,19.623-14.633,24.871s-18.917,7.116-28.882,9.073-19.969,4.123-29.892,6.418a120.344,120.344,0,0,1-14.064,2.768c-10.622,1.2-21.725-.569-31.818,2.944-4.011,1.4-7.951,3.49-12.111,4.461a75.344,75.344,0,0,1-8.376,1.276l-19.1,2.182a104.219,104.219,0,0,1-11.713.9c-8.343,0-16.551-1.976-24.652-3.951a6.231,6.231,0,0,1-2.405-.971c-1.283-1.011-1.564-2.8-1.749-4.42q-1.227-10.759-2.147-21.54c-.192-2.335-.337-4.862.939-6.827,1.6-2.405,4.734-3.161,7.59-3.627a198.057,198.057,0,0,1,36.648-2.543c4.661-4.661,12.347-4.685,18.452-7.22a54.877,54.877,0,0,0,6.507-3.538,85.038,85.038,0,0,1,35.725-11.288,33.26,33.26,0,0,0,7.309-1.043c4.724-1.468,9.034-5.464,13.887-4.485.6-1.66,1.019-3.883,2.405-5.022.687-.586,1.54-.978,2.174-1.6,1.34-1.355,1.46-3.49,1.259-5.383s-.65-3.834-.161-5.68a7.852,7.852,0,0,1,.891-1.982C368.924,587.2,372.559,585.069,377.4,585.47Z" transform="translate(-130.123 -242.958)" fill="#2f2e41"/><path d="M180.28,429.061a8.3,8.3,0,0,0-1.781,2.848,134.669,134.669,0,0,0-11.312,46.226,4.62,4.62,0,0,1-.521,2.238,9.8,9.8,0,0,1-1.179,1.276,4.429,4.429,0,0,0,.53,6.241q.109.092.224.177c1.324-2.491,4.492-3.305,7.309-3.522,13.486-1.067,26.659,5.207,40.185,4.734-.954-3.3-2.327-6.466-3.105-9.8-3.442-14.818,5.143-30.951-.12-45.224-1.051-2.856-2.808-5.664-5.576-6.916a14.85,14.85,0,0,0-3.57-.945c-3.418-.618-10.222-3.257-13.526-2.2-1.22.393-1.7,1.54-2.712,2.233C183.59,427.409,181.553,427.769,180.28,429.061Z" transform="translate(-120.486 -220.271)" fill="#6c63ff"/><path d="M385.505,486.74c-4.067-1.741-11.761-.674-16.214-.8-6.12-.144-12.586.506-17.609,4.011-6.106,4.27-8.914,12.106-8.865,19.56s2.551,14.639,5.231,21.6c1.492,3.923,3.065,7.814,3.586,11.946,0,0-53.36,6.326-56.581,8.921s-4.661,7.786-2.19,10.995,79.553,6.431,89.7,4.284a3.209,3.209,0,0,0,3.289-3.121c1.026-5.984,1.852-11.977,2.405-18.019.293-3.113.506-6.226.722-9.346l2.305-33.11a28.4,28.4,0,0,0-.1-7C390.59,493.5,388.724,488.157,385.505,486.74Z" transform="translate(-138.421 -228.984)" fill="#fbbebe"/><path d="M381.554,426.428c-1.011-.693-1.492-1.84-2.712-2.233-3.3-1.059-10.108,1.58-13.526,2.2a14.851,14.851,0,0,0-3.57.945c-2.768,1.252-4.524,4.06-5.576,6.916-5.263,14.273,3.322,30.406-.12,45.224-.778,3.337-2.151,6.506-3.105,9.8,13.526.473,26.7-5.8,40.185-4.734,2.817.216,5.985,1.031,7.309,3.522q.115-.085.225-.177a4.429,4.429,0,0,0,.53-6.241,9.786,9.786,0,0,1-1.18-1.276,4.622,4.622,0,0,1-.521-2.238,134.669,134.669,0,0,0-11.312-46.226,8.305,8.305,0,0,0-1.781-2.848C385.127,427.769,383.09,427.409,381.554,426.428Z" transform="translate(-147.071 -220.271)" fill="#6c63ff"/><path d="M287.5,521.893l-2.345,17.646-69.18-.648,3.462-26.044Z" transform="translate(-30.459 -98.391)" fill="#ffb6b6"/><path d="M428.577,676.773l-7.562,56.9-.72-.1a22.342,22.342,0,0,1-19.2-25.089h0l4.619-34.751Z" transform="translate(-153.833 -255.499)" fill="#2f2e41"/><path d="M212.32,593.064c0,.8-1.259,0-1.374-.859-.882-6.49-6.033-11.842-12.034-14.441s-12.836-2.736-19.335-2.118c-9.827.93-20.859,4.693-24.453,13.879-.85,2.148-8.816,21.268-8.039,25.568,2.094,11.472,9.94,21.284,19.447,28.08s20.615,10.855,31.7,14.517a549.7,549.7,0,0,0,89.854,21.46,86.412,86.412,0,0,1,14.665,3.025c4.236,1.42,8.2,3.546,12.339,5.215,9.627,3.865,19.985,5.246,30.245,6.6,1.749.225,3.755.385,5.046-.8,1.669-1.546,1.117-4.244.642-6.466a34.778,34.778,0,0,1,4.1-24.677c1.718-2.888,3.951-5.849,3.627-9.191-.385-3.9-4.268-6.659-8.135-7.285s-7.8.3-11.682.8a6.257,6.257,0,0,1-3.971-.393,7.929,7.929,0,0,1-1.556-1.38,17.594,17.594,0,0,0-20.49-2.864c-1.436.8-3.608-.987-5.1-1.66l-16.872-7.638c-19.383-8.768-38.862-17.578-59.368-23.129a12.467,12.467,0,0,1-4.573-1.9c-1.019-.8-1.749-1.89-2.688-2.784-2.046-1.933-4.9-2.7-7.348-4.076S211.758,595.815,212.32,593.064Z" transform="translate(-118.031 -241.622)" fill="#2f2e41"/><circle cx="12.026" cy="12.026" r="12.026" transform="translate(125.94 315.798)" fill="#fbbebe"/><circle cx="12.026" cy="12.026" r="12.026" transform="translate(152.568 315.798)" fill="#fbbebe"/><path d="M362.985,581.179H197.771A7.284,7.284,0,0,1,190.5,573.9V473.673a7.284,7.284,0,0,1,7.276-7.275H362.985a7.284,7.284,0,0,1,7.276,7.275V573.9A7.284,7.284,0,0,1,362.985,581.179Z" transform="translate(-124.16 -226.258)" fill="#3f3d56"/><circle cx="4.814" cy="4.814" r="4.814" transform="translate(151.003 292.717)" fill="#fff"/></g></g></svg>