<svg xmlns="http://www.w3.org/2000/svg" width="172.197" height="172.197" viewBox="0 0 172.197 172.197"><path d="M89.473,3.375a86.1,86.1,0,1,0,86.1,86.1A86.085,86.085,0,0,0,89.473,3.375Zm21.814,117.268L89.473,98.828,67.659,120.643a6.615,6.615,0,1,1-9.355-9.355L80.118,89.473,58.3,67.659A6.615,6.615,0,0,1,67.659,58.3L89.473,80.118,111.288,58.3a6.615,6.615,0,0,1,9.355,9.355L98.828,89.473l21.814,21.814a6.646,6.646,0,0,1,0,9.355A6.571,6.571,0,0,1,111.288,120.643Z" transform="translate(-3.375 -3.375)"/></svg>